<?xml version="1.0" encoding="UTF-8" standalone="no"?>
<!DOCTYPE svg PUBLIC "-//W3C//DTD SVG 1.1//EN" "http://www.w3.org/Graphics/SVG/1.1/DTD/svg11.dtd">
<svg xmlns="http://www.w3.org/2000/svg" version="1.1" viewBox="0 0 426 150">
<path fill="#0e0637" d="M 0.00,0.00 Q 213.00,0.00 426.00,0.00 Q 426.00,75.00 426.00,150.00 Q 213.00,150.00 0.00,150.00 Q 0.00,75.00 0.00,0.00 ZM 191.19,39.27 A 1.00 1.00 0.0 0 0 190.19,38.27 L 188.75,38.27 A 1.00 1.00 0.0 0 0 187.75,39.27 L 187.75,110.49 A 1.00 1.00 0.0 0 0 188.75,111.49 L 190.19,111.49 A 1.00 1.00 0.0 0 0 191.19,110.49 L 191.19,39.27 ZM 306.97,69.21 A 2.88,2.66 -72.4 0 1 305.95,67.04 L 305.71,44.81 A 0.40,0.38 80.8 0 0 305.20,44.42 L 301.20,45.79 A 0.39,0.35 60.4 0 0 301.07,46.38 Q 302.44,48.14 302.37,50.37 Q 302.30,52.59 302.30,52.64 Q 302.62,59.85 302.23,67.44 A 2.59,2.58 -18.6 0 1 301.32,69.27 Q 299.26,71.01 302.02,70.34 Q 304.50,69.73 307.02,70.13 Q 309.37,70.50 307.86,69.70 Q 307.06,69.28 306.97,69.21 ZM 161.56,48.69 Q 157.43,46.88 153.10,45.73 Q 148.45,44.50 144.28,44.77 Q 135.65,45.33 129.06,50.06 Q 114.71,60.38 116.25,79.25 Q 117.48,94.27 128.85,101.13 Q 137.64,106.43 148.02,105.41 Q 161.39,104.10 169.00,91.25 Q 169.59,90.26 168.94,89.74 A 0.61,0.52 -50.5 0 0 168.17,89.88 Q 164.84,93.76 162.56,96.06 Q 158.26,100.42 152.00,101.28 Q 140.23,102.90 133.20,95.94 Q 128.02,90.81 126.50,81.70 Q 125.15,73.69 127.03,65.45 Q 128.50,58.95 132.50,54.25 Q 137.95,47.84 146.75,47.93 Q 160.44,48.08 164.90,60.48 Q 165.29,61.55 165.80,62.57 Q 166.99,64.91 167.49,64.45 Q 167.76,64.19 167.74,62.99 Q 167.57,54.35 166.80,45.75 A 1.27,0.98 -78.9 0 0 166.38,44.91 Q 165.18,43.99 164.44,45.94 Q 163.13,49.37 161.56,48.69 ZM 353.6701,47.1847 A 1.89,1.64 25.2 0 0 352.6583,44.8961 A 1.89,1.64 25.2 0 0 350.2499,45.5753 A 1.89,1.64 25.2 0 0 351.2617,47.8639 A 1.89,1.64 25.2 0 0 353.6701,47.1847 ZM 317.75,47.11 Q 317.37,48.32 317.08,50.02 Q 316.88,51.17 317.66,50.37 L 321.66,46.24 A 0.47,0.44 36.5 0 0 321.53,45.54 Q 320.36,44.85 319.25,45.27 Q 318.20,45.67 317.75,47.11 ZM 43.06,49.79 Q 52.13,49.34 55.25,50.25 Q 59.95,51.63 61.21,57.47 Q 61.43,58.49 62.11,59.28 Q 64.02,61.51 63.63,57.74 Q 63.11,52.76 62.97,46.63 A 0.91,0.90 0.3 0 0 62.08,45.74 Q 38.62,45.14 14.74,45.74 A 0.55,0.54 -88.2 0 0 14.21,46.25 Q 13.80,52.21 13.65,58.19 Q 13.62,59.60 13.94,59.62 A 1.51,1.49 8.1 0 0 15.50,58.46 Q 16.51,53.99 18.77,51.79 Q 20.61,49.98 25.24,49.63 Q 29.00,49.35 33.03,49.52 A 1.02,1.01 -88.8 0 1 34.00,50.54 Q 34.00,71.00 34.00,91.25 Q 34.00,94.79 33.74,97.43 Q 33.47,100.08 31.83,101.30 Q 29.83,102.78 27.00,102.70 Q 25.37,102.66 25.59,103.77 A 0.71,0.62 -3.9 0 0 26.25,104.27 Q 38.36,104.85 50.46,104.26 Q 50.79,104.25 50.99,104.11 Q 51.61,103.70 50.70,103.40 Q 48.28,102.60 45.74,102.25 Q 43.96,102.00 43.44,100.29 Q 42.41,96.96 42.42,93.25 Q 42.45,71.79 42.56,50.32 A 0.53,0.52 88.9 0 1 43.06,49.79 ZM 222.04,47.43 Q 223.25,47.13 224.47,47.25 Q 226.82,47.49 227.05,47.54 Q 228.61,47.88 229.00,49.74 Q 229.43,51.78 230.07,49.80 Q 231.58,45.17 228.00,45.41 Q 226.58,45.50 226.50,45.50 Q 218.50,45.50 210.49,45.50 A 0.99,0.99 -0.9 0 0 209.50,46.49 Q 209.50,48.50 209.50,50.50 Q 209.50,50.92 209.80,50.98 A 0.66,0.41 -70.4 0 0 210.34,50.55 Q 212.44,45.64 217.60,47.74 A 0.76,0.76 -79.4 0 1 218.07,48.43 Q 218.09,56.89 218.01,65.34 Q 218.00,67.06 217.39,68.01 Q 216.60,69.24 215.26,69.97 Q 214.89,70.17 215.31,70.17 L 224.00,70.22 Q 224.45,70.23 224.11,69.93 Q 221.29,67.44 221.75,62.75 Q 222.05,59.64 221.58,48.06 A 0.63,0.61 82.0 0 1 222.04,47.43 ZM 71.51,100.85 Q 69.06,102.35 65.50,102.71 A 1.09,0.65 3.2 0 0 64.68,103.14 Q 64.48,103.56 64.91,103.93 Q 65.22,104.19 65.80,104.19 Q 87.87,104.34 109.94,104.19 A 0.77,0.76 -78.2 0 0 110.64,103.73 Q 114.69,94.23 115.19,90.94 Q 115.58,88.34 114.18,89.68 Q 113.86,89.99 113.55,90.53 Q 110.39,96.24 107.19,98.69 Q 103.79,101.27 98.69,101.18 Q 94.07,101.10 93.79,101.11 Q 88.50,101.22 83.30,100.28 A 0.90,0.86 -4.4 0 1 82.62,99.72 Q 81.91,97.77 81.75,94.00 Q 81.39,85.38 81.51,76.05 A 0.81,0.81 -89.6 0 1 82.32,75.25 Q 88.87,75.25 94.75,75.27 Q 98.10,75.28 100.95,76.46 A 3.37,3.34 -87.9 0 1 102.85,78.52 Q 103.78,81.41 104.86,83.47 Q 106.04,85.72 106.08,82.75 Q 106.18,73.49 105.77,64.25 A 1.03,0.80 -79.8 0 0 105.35,63.45 Q 104.45,62.94 104.29,64.50 Q 103.69,70.59 98.91,71.64 Q 98.48,71.73 91.08,71.94 Q 86.79,72.07 82.73,71.78 A 1.09,1.09 3.4 0 1 81.71,70.63 Q 82.28,60.88 81.69,50.76 A 1.43,1.43 88.5 0 1 83.12,49.25 Q 92.00,49.25 100.00,49.45 Q 107.92,49.65 109.39,57.14 Q 109.56,57.97 109.73,58.32 Q 110.31,59.48 111.13,58.59 A 1.23,1.11 65.6 0 0 111.42,57.68 L 110.42,46.36 A 0.69,0.66 -2.2 0 0 109.73,45.75 L 64.98,45.75 Q 64.12,45.75 64.64,46.44 Q 65.51,47.59 67.25,47.63 Q 70.40,47.69 72.42,49.87 A 1.41,1.31 -68.9 0 1 72.77,50.74 Q 73.74,74.49 73.00,98.30 Q 72.95,99.97 71.51,100.85 ZM 237.22,66.81 Q 232.64,65.06 233.11,58.96 Q 233.26,56.97 234.59,55.47 Q 236.48,53.35 239.19,55.81 Q 240.12,56.66 240.44,58.76 A 0.77,0.74 -86.7 0 0 240.98,59.39 Q 244.53,60.34 244.26,57.88 Q 244.12,56.60 243.16,55.44 Q 241.62,53.60 239.25,53.25 Q 232.24,52.21 230.54,58.90 Q 229.16,64.31 232.25,67.67 Q 234.68,70.31 238.03,70.17 Q 241.85,70.01 243.78,65.76 Q 244.42,64.36 243.68,64.35 A 1.25,0.66 -58.6 0 0 242.87,64.83 Q 241.77,66.11 240.27,66.77 Q 238.79,67.42 237.22,66.81 ZM 269.76,55.08 Q 268.82,56.20 268.52,54.82 Q 268.06,52.74 266.22,53.32 Q 266.11,53.35 265.25,53.44 L 263.29,53.65 A 0.41,0.35 69.7 0 0 263.07,54.25 Q 264.19,56.17 264.25,56.75 Q 264.85,62.50 264.28,67.98 A 2.08,2.07 -15.1 0 1 263.45,69.42 Q 261.33,71.01 264.01,70.30 Q 266.55,69.63 269.06,70.26 Q 271.00,70.75 268.61,68.84 A 1.57,1.33 21.3 0 1 268.02,67.75 L 267.74,59.22 A 3.00,2.59 -21.9 0 1 268.92,56.93 Q 271.83,54.72 273.61,55.93 A 1.31,1.01 -82.6 0 1 274.08,56.74 Q 274.96,62.23 274.27,67.75 Q 274.10,69.13 272.96,69.78 Q 272.47,70.06 272.92,70.28 Q 273.53,70.58 274.27,70.31 Q 276.00,69.70 278.76,70.57 Q 279.78,70.89 279.19,70.00 Q 277.81,67.93 277.92,65.94 Q 277.99,64.61 277.99,64.55 Q 277.89,59.09 277.75,57.75 Q 277.16,52.05 271.55,53.43 A 1.66,1.43 9.4 0 0 270.73,53.93 L 269.76,55.08 ZM 316.7898,69.7733 A 8.45,7.99 101.4 0 0 326.2924,63.0693 A 8.45,7.99 101.4 0 0 320.1302,53.2067 A 8.45,7.99 101.4 0 0 310.6276,59.9107 A 8.45,7.99 101.4 0 0 316.7898,69.7733 ZM 331.69,55.69 Q 328.73,60.60 333.31,63.69 Q 335.30,65.02 337.66,64.37 Q 339.69,63.82 341.42,62.64 Q 344.45,60.57 343.06,56.44 A 0.70,0.69 -23.4 0 1 343.40,55.60 Q 346.84,53.80 348.90,55.01 Q 350.49,55.94 350.67,59.14 Q 350.85,62.19 350.81,65.25 Q 350.78,67.86 349.10,69.65 Q 348.75,70.03 349.25,70.08 Q 350.33,70.20 351.36,69.78 A 1.74,0.68 -32.3 0 1 352.30,69.60 L 355.20,70.06 Q 355.63,70.13 355.37,69.80 Q 354.80,69.07 354.32,68.27 Q 353.75,67.34 353.68,66.08 Q 353.35,60.01 353.55,53.93 A 0.44,0.44 -1.8 0 0 353.07,53.48 Q 344.52,54.15 335.99,53.42 Q 333.20,53.18 331.69,55.69 ZM 250.46,63.66 Q 249.09,60.87 250.07,57.52 Q 251.10,54.00 254.41,54.75 Q 255.43,54.98 256.10,55.92 Q 256.58,56.58 257.31,57.69 Q 258.26,59.11 259.55,58.24 A 1.20,1.05 79.3 0 0 260.02,57.44 Q 260.42,54.43 257.31,53.69 Q 248.88,51.68 247.00,59.75 Q 245.84,64.73 248.97,67.96 Q 251.48,70.55 254.82,70.08 Q 258.67,69.54 260.07,65.08 Q 260.21,64.65 260.21,64.29 Q 260.22,63.20 259.51,63.68 Q 259.24,63.86 258.99,64.31 Q 257.04,67.80 253.96,66.82 Q 251.63,66.08 250.46,63.66 ZM 286.8940,69.6271 A 8.49,7.93 108.8 0 0 297.1369,64.1456 A 8.49,7.93 108.8 0 0 292.3660,53.5529 A 8.49,7.93 108.8 0 0 282.1231,59.0344 A 8.49,7.93 108.8 0 0 286.8940,69.6271 ZM 360.71,55.95 Q 356.51,61.73 360.56,67.69 Q 362.04,69.85 364.69,70.23 Q 367.02,70.56 369.05,69.21 Q 371.51,67.56 372.06,64.72 Q 372.37,63.13 371.28,64.33 Q 365.94,70.24 362.31,63.44 Q 361.06,61.10 361.61,58.56 Q 362.11,56.28 363.82,55.08 Q 366.45,53.22 368.66,57.05 Q 370.49,60.24 371.75,57.40 A 1.24,1.21 47.4 0 0 371.78,56.46 Q 370.56,53.10 367.22,53.40 Q 364.94,53.60 363.74,53.87 Q 361.91,54.29 360.71,55.95 ZM 380.3665,69.7104 A 8.46,7.96 105.8 0 0 390.3293,63.7374 A 8.46,7.96 105.8 0 0 384.9735,53.4296 A 8.46,7.96 105.8 0 0 375.0107,59.4026 A 8.46,7.96 105.8 0 0 380.3665,69.7104 ZM 332.54,70.91 Q 338.23,69.13 343.82,71.62 A 0.98,0.97 12.8 0 0 345.19,70.76 Q 345.24,69.06 343.69,68.06 Q 342.06,67.02 338.25,67.01 Q 335.05,67.01 332.24,65.49 Q 330.44,64.53 330.80,66.53 Q 331.47,70.28 329.07,73.01 Q 327.74,74.53 329.55,75.43 Q 334.88,78.09 340.76,76.53 Q 341.93,76.22 341.30,75.70 Q 341.06,75.51 340.65,75.47 Q 337.82,75.25 335.01,74.93 Q 331.89,74.58 332.02,71.56 A 0.73,0.70 -7.6 0 1 332.54,70.91 ZM 213.60,105.11 Q 215.32,106.33 217.04,105.12 Q 217.94,104.49 219.67,104.88 Q 221.50,105.28 223.91,104.66 A 0.49,0.49 66.5 0 0 224.20,103.92 Q 222.63,101.48 222.65,99.75 Q 222.75,91.75 222.75,83.59 A 0.86,0.78 -7.3 0 0 221.69,82.86 L 218.79,83.55 A 0.42,0.41 74.3 0 0 218.49,84.09 L 220.24,89.20 A 1.19,1.02 -5.6 0 1 218.96,90.54 Q 212.26,89.99 210.34,95.78 Q 208.47,101.45 213.60,105.11 ZM 355.97,84.18 Q 356.23,86.38 358.30,85.47 A 0.79,0.76 78.7 0 0 358.76,84.75 Q 358.76,81.55 356.32,83.38 A 0.91,0.89 -22.3 0 0 355.97,84.18 ZM 333.14,84.40 A 2.09,2.08 -77.6 0 1 334.23,86.11 Q 334.57,91.79 334.53,97.20 Q 334.50,100.98 334.45,101.29 Q 334.12,103.28 332.70,105.15 Q 332.27,105.71 332.96,105.56 Q 336.52,104.81 339.76,105.62 Q 340.80,105.88 340.21,105.36 Q 339.88,105.08 338.91,104.63 A 1.41,1.38 -83.3 0 1 338.12,103.60 Q 337.39,99.48 337.63,96.42 Q 337.85,93.48 337.64,91.57 Q 337.30,88.58 337.52,85.56 A 0.72,0.70 85.6 0 1 338.05,84.92 Q 340.40,84.36 342.69,86.06 Q 345.55,88.19 344.21,91.23 Q 343.23,93.46 339.77,93.51 Q 338.69,93.53 339.32,94.40 L 346.51,104.29 A 1.10,0.98 70.3 0 0 347.32,104.73 L 352.94,104.84 Q 353.52,104.85 352.97,104.63 Q 349.51,103.27 348.44,101.81 Q 346.27,98.87 343.85,95.95 A 0.83,0.83 57.8 0 1 344.14,94.67 Q 347.30,93.20 348.06,90.59 Q 348.81,87.99 346.72,85.90 Q 344.62,83.80 341.24,83.67 Q 337.49,83.52 333.75,83.35 Q 330.99,83.22 333.14,84.40 ZM 253.61,99.37 Q 250.65,93.88 254.19,87.94 Q 256.24,84.49 260.21,84.54 Q 262.59,84.57 264.39,85.92 Q 266.33,87.39 267.00,89.75 Q 267.15,90.28 267.43,90.22 A 0.69,0.36 89.1 0 0 267.74,89.60 L 267.93,84.58 Q 268.00,82.82 266.76,83.99 Q 265.51,85.17 263.96,84.51 Q 257.51,81.76 252.48,86.48 Q 249.39,89.38 249.06,92.31 Q 247.95,102.19 255.91,104.93 Q 259.35,106.12 262.28,105.38 Q 265.76,104.50 267.69,101.19 Q 268.11,100.46 267.72,100.17 A 0.64,0.46 -53.1 0 0 266.96,100.41 Q 263.77,104.76 259.30,103.84 Q 255.62,103.09 253.61,99.37 ZM 303.70,86.93 Q 301.69,88.59 300.01,91.31 A 0.54,0.53 -56.8 0 0 300.16,92.04 Q 301.67,93.09 301.49,94.74 Q 301.32,96.29 301.33,96.41 Q 301.41,100.06 301.76,103.69 A 0.95,0.88 -80.5 0 0 302.25,104.43 Q 304.02,105.32 305.96,104.83 A 1.23,1.13 5.6 0 0 306.71,104.27 Q 307.55,102.80 305.34,102.75 A 1.12,1.12 0.8 0 1 304.25,101.63 L 304.25,93.15 A 0.58,0.57 -3.4 0 1 304.76,92.58 Q 307.49,92.25 307.02,91.43 A 1.09,0.62 -4.7 0 0 306.20,91.05 Q 303.12,90.84 304.43,87.46 Q 305.08,85.79 303.70,86.93 ZM 235.73,102.15 Q 231.33,104.04 229.14,99.46 Q 227.55,96.15 231.39,96.19 L 237.38,96.25 A 1.19,1.15 83.0 0 0 238.50,94.77 Q 237.71,91.61 235.14,90.66 Q 232.99,89.86 230.42,90.98 Q 224.99,93.33 226.75,100.29 Q 228.12,105.72 233.19,105.44 Q 237.32,105.20 238.36,100.80 Q 238.46,100.38 238.33,100.09 Q 238.02,99.39 237.36,100.11 Q 236.78,100.73 236.40,101.49 A 1.53,1.18 -82.1 0 1 235.73,102.15 ZM 278.1479,105.4483 A 7.54,7.06 88.8 0 0 285.0485,97.7621 A 7.54,7.06 88.8 0 0 277.8321,90.3717 A 7.54,7.06 88.8 0 0 270.9315,98.0579 A 7.54,7.06 88.8 0 0 278.1479,105.4483 ZM 288.09,92.93 Q 287.35,97.28 291.61,98.79 Q 293.57,99.48 294.62,100.69 A 1.77,1.76 -43.1 0 1 294.54,103.08 Q 292.61,105.04 291.22,103.53 Q 290.37,102.61 289.36,101.06 Q 288.41,99.61 288.00,101.30 Q 287.41,103.71 288.52,104.43 Q 288.81,104.63 290.97,105.16 Q 293.52,105.78 295.56,104.31 Q 298.69,102.06 297.05,99.25 Q 296.35,98.04 294.38,96.88 Q 292.81,95.95 291.22,95.06 Q 290.42,94.61 290.14,94.06 Q 289.71,93.22 290.11,92.49 Q 290.52,91.72 291.73,91.61 Q 294.32,91.38 295.56,92.94 Q 297.88,95.84 296.99,91.86 A 0.88,0.88 2.3 0 0 296.39,91.21 Q 291.64,89.67 288.56,92.12 A 1.38,1.31 76.7 0 0 288.09,92.93 ZM 355.89,101.93 Q 355.83,103.41 355.27,104.73 A 0.34,0.33 -77.6 0 0 355.56,105.20 L 359.49,105.40 Q 360.04,105.43 359.80,105.01 L 359.58,104.62 Q 359.20,103.97 359.19,103.75 L 358.67,91.32 A 0.70,0.57 -86.7 0 0 358.21,90.68 Q 356.62,90.35 354.54,91.20 Q 353.23,91.74 354.54,92.28 Q 356.06,92.90 356.05,94.75 Q 356.05,98.34 355.89,101.93 ZM 368.72,91.79 Q 370.63,91.46 371.63,93.73 A 1.25,1.04 84.8 0 0 372.27,94.37 Q 376.15,95.86 374.06,92.12 A 1.37,1.36 -3.7 0 0 373.35,91.50 Q 365.26,88.25 363.25,96.50 Q 362.44,99.81 364.16,102.39 Q 365.81,104.87 368.69,105.40 Q 372.67,106.12 374.28,101.21 Q 374.45,100.69 374.26,100.47 A 0.58,0.34 -52.1 0 0 373.55,100.75 Q 372.14,102.94 369.80,102.58 Q 367.99,102.31 366.81,100.53 Q 364.58,97.17 366.50,93.59 Q 367.34,92.03 368.72,91.79 ZM 320.09,101.01 Q 320.88,96.28 319.36,91.79 A 0.98,0.94 87.2 0 0 318.71,91.17 Q 315.35,90.29 310.99,91.87 A 1.88,1.87 80.4 0 0 309.75,93.62 Q 309.74,95.57 310.97,94.87 Q 311.38,94.64 311.82,93.94 Q 313.33,91.49 315.75,92.00 Q 318.32,92.55 317.35,94.46 Q 316.90,95.33 315.61,95.92 Q 311.81,97.64 310.81,98.56 Q 308.98,100.26 309.39,102.42 Q 309.66,103.79 310.90,104.48 Q 312.14,105.17 313.59,105.06 Q 314.15,105.02 315.11,104.41 Q 316.16,103.75 316.94,104.31 Q 319.87,106.44 321.95,103.90 A 0.54,0.41 40.7 0 0 321.81,103.26 L 320.27,101.91 A 1.10,0.61 -72.4 0 1 320.09,101.01 ZM 378.44,92.94 Q 377.67,94.57 379.22,95.26 A 0.60,0.60 -61.7 0 0 379.98,95.03 L 381.57,92.41 A 1.70,1.58 -60.1 0 1 383.73,91.74 Q 386.94,93.47 385.12,95.29 Q 384.48,95.93 382.54,96.70 Q 379.76,97.81 379.06,98.81 Q 375.52,103.92 381.26,104.92 Q 381.70,105.00 382.21,104.82 Q 383.72,104.30 385.25,104.40 Q 385.34,104.40 387.50,105.09 Q 389.06,105.59 390.21,104.16 A 0.53,0.48 38.9 0 0 390.10,103.46 L 388.94,102.53 A 1.18,1.02 -74.6 0 1 388.54,101.69 Q 388.38,97.78 388.50,97.00 Q 389.51,90.20 382.74,90.53 Q 379.50,90.68 378.44,92.94 Z"/>
<rect fill="#ff3e2d" x="187.75" y="38.27" width="3.44" height="73.22" rx="1.00"/>
<path fill="#ffffff" d="M 306.97,69.21 Q 307.06,69.28 307.86,69.70 Q 309.37,70.50 307.02,70.13 Q 304.50,69.73 302.02,70.34 Q 299.26,71.01 301.32,69.27 A 2.59,2.58 -18.6 0 0 302.23,67.44 Q 302.62,59.85 302.30,52.64 Q 302.30,52.59 302.37,50.37 Q 302.44,48.14 301.07,46.38 A 0.39,0.35 60.4 0 1 301.20,45.79 L 305.20,44.42 A 0.40,0.38 80.8 0 1 305.71,44.81 L 305.95,67.04 A 2.88,2.66 -72.4 0 0 306.97,69.21 Z"/>
<path fill="#ffffff" d="M 161.56,48.69 Q 163.13,49.37 164.44,45.94 Q 165.18,43.99 166.38,44.91 A 1.27,0.98 -78.9 0 1 166.80,45.75 Q 167.57,54.35 167.74,62.99 Q 167.76,64.19 167.49,64.45 Q 166.99,64.91 165.80,62.57 Q 165.29,61.55 164.90,60.48 Q 160.44,48.08 146.75,47.93 Q 137.95,47.84 132.50,54.25 Q 128.50,58.95 127.03,65.45 Q 125.15,73.69 126.50,81.70 Q 128.02,90.81 133.20,95.94 Q 140.23,102.90 152.00,101.28 Q 158.26,100.42 162.56,96.06 Q 164.84,93.76 168.17,89.88 A 0.61,0.52 -50.5 0 1 168.94,89.74 Q 169.59,90.26 169.00,91.25 Q 161.39,104.10 148.02,105.41 Q 137.64,106.43 128.85,101.13 Q 117.48,94.27 116.25,79.25 Q 114.71,60.38 129.06,50.06 Q 135.65,45.33 144.28,44.77 Q 148.45,44.50 153.10,45.73 Q 157.43,46.88 161.56,48.69 Z"/>
<ellipse fill="#ffffff" cx="0.00" cy="0.00" transform="translate(351.96,46.38) rotate(25.2)" rx="1.89" ry="1.64"/>
<path fill="#ffffff" d="M 319.25,45.27 Q 320.36,44.85 321.53,45.54 A 0.47,0.44 36.5 0 1 321.66,46.24 L 317.66,50.37 Q 316.88,51.17 317.08,50.02 Q 317.37,48.32 317.75,47.11 Q 318.20,45.67 319.25,45.27 Z"/>
<path fill="#ffffff" d="M 42.56,50.32 Q 42.45,71.79 42.42,93.25 Q 42.41,96.96 43.44,100.29 Q 43.96,102.00 45.74,102.25 Q 48.28,102.60 50.70,103.40 Q 51.61,103.70 50.99,104.11 Q 50.79,104.25 50.46,104.26 Q 38.36,104.85 26.25,104.27 A 0.71,0.62 -3.9 0 1 25.59,103.77 Q 25.37,102.66 27.00,102.70 Q 29.83,102.78 31.83,101.30 Q 33.47,100.08 33.74,97.43 Q 34.00,94.79 34.00,91.25 Q 34.00,71.00 34.00,50.54 A 1.02,1.01 -88.8 0 0 33.03,49.52 Q 29.00,49.35 25.24,49.63 Q 20.61,49.98 18.77,51.79 Q 16.51,53.99 15.50,58.46 A 1.51,1.49 8.1 0 1 13.94,59.62 Q 13.62,59.60 13.65,58.19 Q 13.80,52.21 14.21,46.25 A 0.55,0.54 -88.2 0 1 14.74,45.74 Q 38.62,45.14 62.08,45.74 A 0.91,0.90 0.3 0 1 62.97,46.63 Q 63.11,52.76 63.63,57.74 Q 64.02,61.51 62.11,59.28 Q 61.43,58.49 61.21,57.47 Q 59.95,51.63 55.25,50.25 Q 52.13,49.34 43.06,49.79 A 0.53,0.52 88.9 0 0 42.56,50.32 Z"/>
<path fill="#ffffff" d="M 221.58,48.06 Q 222.05,59.64 221.75,62.75 Q 221.29,67.44 224.11,69.93 Q 224.45,70.23 224.00,70.22 L 215.31,70.17 Q 214.89,70.17 215.26,69.97 Q 216.60,69.24 217.39,68.01 Q 218.00,67.06 218.01,65.34 Q 218.09,56.89 218.07,48.43 A 0.76,0.76 -79.4 0 0 217.60,47.74 Q 212.44,45.64 210.34,50.55 A 0.66,0.41 -70.4 0 1 209.80,50.98 Q 209.50,50.92 209.50,50.50 Q 209.50,48.50 209.50,46.49 A 0.99,0.99 -1.4 0 1 210.49,45.50 Q 218.50,45.50 226.50,45.50 Q 226.58,45.50 228.00,45.41 Q 231.58,45.17 230.07,49.80 Q 229.43,51.78 229.00,49.74 Q 228.61,47.88 227.05,47.54 Q 226.82,47.49 224.47,47.25 Q 223.25,47.13 222.04,47.43 A 0.63,0.61 82.0 0 0 221.58,48.06 Z"/>
<path fill="#ffffff" d="M 71.51,100.85 Q 72.95,99.97 73.00,98.30 Q 73.74,74.49 72.77,50.74 A 1.41,1.31 -68.9 0 0 72.42,49.87 Q 70.40,47.69 67.25,47.63 Q 65.51,47.59 64.64,46.44 Q 64.12,45.75 64.98,45.75 L 109.73,45.75 A 0.69,0.66 -2.2 0 1 110.42,46.36 L 111.42,57.68 A 1.23,1.11 65.6 0 1 111.13,58.59 Q 110.31,59.48 109.73,58.32 Q 109.56,57.97 109.39,57.14 Q 107.92,49.65 100.00,49.45 Q 92.00,49.25 83.12,49.25 A 1.43,1.43 88.5 0 0 81.69,50.76 Q 82.28,60.88 81.71,70.63 A 1.09,1.09 3.4 0 0 82.73,71.78 Q 86.79,72.07 91.08,71.94 Q 98.48,71.73 98.91,71.64 Q 103.69,70.59 104.29,64.50 Q 104.45,62.94 105.35,63.45 A 1.03,0.80 -79.8 0 1 105.77,64.25 Q 106.18,73.49 106.08,82.75 Q 106.04,85.72 104.86,83.47 Q 103.78,81.41 102.85,78.52 A 3.37,3.34 -87.9 0 0 100.95,76.46 Q 98.10,75.28 94.75,75.27 Q 88.87,75.25 82.32,75.25 A 0.81,0.81 -89.6 0 0 81.51,76.05 Q 81.39,85.38 81.75,94.00 Q 81.91,97.77 82.62,99.72 A 0.90,0.86 -4.4 0 0 83.30,100.28 Q 88.50,101.22 93.79,101.11 Q 94.07,101.10 98.69,101.18 Q 103.79,101.27 107.19,98.69 Q 110.39,96.24 113.55,90.53 Q 113.86,89.99 114.18,89.68 Q 115.58,88.34 115.19,90.94 Q 114.69,94.23 110.64,103.73 A 0.77,0.76 -78.2 0 1 109.94,104.19 Q 87.87,104.34 65.80,104.19 Q 65.22,104.19 64.91,103.93 Q 64.48,103.56 64.68,103.14 A 1.09,0.65 3.2 0 1 65.50,102.71 Q 69.06,102.35 71.51,100.85 Z"/>
<path fill="#ffffff" d="M 240.27,66.77 Q 241.77,66.11 242.87,64.83 A 1.25,0.66 -58.6 0 1 243.68,64.35 Q 244.42,64.36 243.78,65.76 Q 241.85,70.01 238.03,70.17 Q 234.68,70.31 232.25,67.67 Q 229.16,64.31 230.54,58.90 Q 232.24,52.21 239.25,53.25 Q 241.62,53.60 243.16,55.44 Q 244.12,56.60 244.26,57.88 Q 244.53,60.34 240.98,59.39 A 0.77,0.74 -86.7 0 1 240.44,58.76 Q 240.12,56.66 239.19,55.81 Q 236.48,53.35 234.59,55.47 Q 233.26,56.97 233.11,58.96 Q 232.64,65.06 237.22,66.81 Q 238.79,67.42 240.27,66.77 Z"/>
<path fill="#ffffff" d="M 269.76,55.08 L 270.73,53.93 A 1.66,1.43 9.4 0 1 271.55,53.43 Q 277.16,52.05 277.75,57.75 Q 277.89,59.09 277.99,64.55 Q 277.99,64.61 277.92,65.94 Q 277.81,67.93 279.19,70.00 Q 279.78,70.89 278.76,70.57 Q 276.00,69.70 274.27,70.31 Q 273.53,70.58 272.92,70.28 Q 272.47,70.06 272.96,69.78 Q 274.10,69.13 274.27,67.75 Q 274.96,62.23 274.08,56.74 A 1.31,1.01 -82.6 0 0 273.61,55.93 Q 271.83,54.72 268.92,56.93 A 3.00,2.59 -21.9 0 0 267.74,59.22 L 268.02,67.75 A 1.57,1.33 21.3 0 0 268.61,68.84 Q 271.00,70.75 269.06,70.26 Q 266.55,69.63 264.01,70.30 Q 261.33,71.01 263.45,69.42 A 2.08,2.07 -15.1 0 0 264.28,67.98 Q 264.85,62.50 264.25,56.75 Q 264.19,56.17 263.07,54.25 A 0.41,0.35 69.7 0 1 263.29,53.65 L 265.25,53.44 Q 266.11,53.35 266.22,53.32 Q 268.06,52.74 268.52,54.82 Q 268.82,56.20 269.76,55.08 Z"/>
<path fill="#ffffff" d="M 316.7898,69.7733 A 8.45,7.99 101.4 0 1 310.6276,59.9107 A 8.45,7.99 101.4 0 1 320.1302,53.2067 A 8.45,7.99 101.4 0 1 326.2924,63.0693 A 8.45,7.99 101.4 0 1 316.7898,69.7733 ZM 319.8048,68.7302 A 7.18,4.54 82.6 0 0 323.3822,61.0253 A 7.18,4.54 82.6 0 0 317.9552,54.4898 A 7.18,4.54 82.6 0 0 314.3778,62.1947 A 7.18,4.54 82.6 0 0 319.8048,68.7302 Z"/>
<path fill="#ffffff" d="M 331.69,55.69 Q 333.20,53.18 335.99,53.42 Q 344.52,54.15 353.07,53.48 A 0.44,0.44 -1.8 0 1 353.55,53.93 Q 353.35,60.01 353.68,66.08 Q 353.75,67.34 354.32,68.27 Q 354.80,69.07 355.37,69.80 Q 355.63,70.13 355.20,70.06 L 352.30,69.60 A 1.74,0.68 -32.3 0 0 351.36,69.78 Q 350.33,70.20 349.25,70.08 Q 348.75,70.03 349.10,69.65 Q 350.78,67.86 350.81,65.25 Q 350.85,62.19 350.67,59.14 Q 350.49,55.94 348.90,55.01 Q 346.84,53.80 343.40,55.60 A 0.70,0.69 -23.4 0 0 343.06,56.44 Q 344.45,60.57 341.42,62.64 Q 339.69,63.82 337.66,64.37 Q 335.30,65.02 333.31,63.69 Q 328.73,60.60 331.69,55.69 ZM 337.2922,63.8868 A 4.70,3.34 87.9 0 0 340.4578,59.0676 A 4.70,3.34 87.9 0 0 336.9478,54.4932 A 4.70,3.34 87.9 0 0 333.7822,59.3124 A 4.70,3.34 87.9 0 0 337.2922,63.8868 Z"/>
<path fill="#ffffff" d="M 253.96,66.82 Q 257.04,67.80 258.99,64.31 Q 259.24,63.86 259.51,63.68 Q 260.22,63.20 260.21,64.29 Q 260.21,64.65 260.07,65.08 Q 258.67,69.54 254.82,70.08 Q 251.48,70.55 248.97,67.96 Q 245.84,64.73 247.00,59.75 Q 248.88,51.68 257.31,53.69 Q 260.42,54.43 260.02,57.44 A 1.20,1.05 79.3 0 1 259.55,58.24 Q 258.26,59.11 257.31,57.69 Q 256.58,56.58 256.10,55.92 Q 255.43,54.98 254.41,54.75 Q 251.10,54.00 250.07,57.52 Q 249.09,60.87 250.46,63.66 Q 251.63,66.08 253.96,66.82 Z"/>
<path fill="#ffffff" d="M 286.8940,69.6271 A 8.49,7.93 108.8 0 1 282.1231,59.0344 A 8.49,7.93 108.8 0 1 292.3660,53.5529 A 8.49,7.93 108.8 0 1 297.1369,64.1456 A 8.49,7.93 108.8 0 1 286.8940,69.6271 ZM 290.9018,68.9368 A 7.34,4.49 83.1 0 0 294.4775,61.1106 A 7.34,4.49 83.1 0 0 289.1382,54.3632 A 7.34,4.49 83.1 0 0 285.5625,62.1894 A 7.34,4.49 83.1 0 0 290.9018,68.9368 Z"/>
<path fill="#ffffff" d="M 360.71,55.95 Q 361.91,54.29 363.74,53.87 Q 364.94,53.60 367.22,53.40 Q 370.56,53.10 371.78,56.46 A 1.24,1.21 47.4 0 1 371.75,57.40 Q 370.49,60.24 368.66,57.05 Q 366.45,53.22 363.82,55.08 Q 362.11,56.28 361.61,58.56 Q 361.06,61.10 362.31,63.44 Q 365.94,70.24 371.28,64.33 Q 372.37,63.13 372.06,64.72 Q 371.51,67.56 369.05,69.21 Q 367.02,70.56 364.69,70.23 Q 362.04,69.85 360.56,67.69 Q 356.51,61.73 360.71,55.95 Z"/>
<path fill="#ffffff" d="M 380.3665,69.7104 A 8.46,7.96 105.8 0 1 375.0107,59.4026 A 8.46,7.96 105.8 0 1 384.9735,53.4296 A 8.46,7.96 105.8 0 1 390.3293,63.7374 A 8.46,7.96 105.8 0 1 380.3665,69.7104 ZM 383.9578,68.7096 A 7.16,4.54 83.2 0 0 387.6181,61.0624 A 7.16,4.54 83.2 0 0 382.2622,54.4904 A 7.16,4.54 83.2 0 0 378.6019,62.1376 A 7.16,4.54 83.2 0 0 383.9578,68.7096 Z"/>
<ellipse fill="#0e0637" cx="0.00" cy="0.00" transform="translate(337.12,59.19) rotate(87.9)" rx="4.70" ry="3.34"/>
<ellipse fill="#0e0637" cx="0.00" cy="0.00" transform="translate(290.02,61.65) rotate(83.1)" rx="7.34" ry="4.49"/>
<ellipse fill="#0e0637" cx="0.00" cy="0.00" transform="translate(318.88,61.61) rotate(82.6)" rx="7.18" ry="4.54"/>
<ellipse fill="#0e0637" cx="0.00" cy="0.00" transform="translate(383.11,61.60) rotate(83.2)" rx="7.16" ry="4.54"/>
<path fill="#ffffff" d="M 332.02,71.56 Q 331.89,74.58 335.01,74.93 Q 337.82,75.25 340.65,75.47 Q 341.06,75.51 341.30,75.70 Q 341.93,76.22 340.76,76.53 Q 334.88,78.09 329.55,75.43 Q 327.74,74.53 329.07,73.01 Q 331.47,70.28 330.80,66.53 Q 330.44,64.53 332.24,65.49 Q 335.05,67.01 338.25,67.01 Q 342.06,67.02 343.69,68.06 Q 345.24,69.06 345.19,70.76 A 0.98,0.97 12.8 0 1 343.82,71.62 Q 338.23,69.13 332.54,70.91 A 0.73,0.70 -7.6 0 0 332.02,71.56 Z"/>
<path fill="#ffffff" d="M 213.60,105.11 Q 208.47,101.45 210.34,95.78 Q 212.26,89.99 218.96,90.54 A 1.19,1.02 -5.6 0 0 220.24,89.20 L 218.49,84.09 A 0.42,0.41 74.3 0 1 218.79,83.55 L 221.69,82.86 A 0.86,0.78 -7.3 0 1 222.75,83.59 Q 222.75,91.75 222.65,99.75 Q 222.63,101.48 224.20,103.92 A 0.49,0.49 66.5 0 1 223.91,104.66 Q 221.50,105.28 219.67,104.88 Q 217.94,104.49 217.04,105.12 Q 215.32,106.33 213.60,105.11 ZM 218.33,92.19 Q 215.87,91.57 214.44,92.97 Q 213.36,94.02 213.01,96.18 Q 212.30,100.70 216.16,103.41 A 1.34,1.21 57.2 0 0 217.06,103.65 Q 218.51,103.48 219.58,102.54 A 1.19,1.05 -23.9 0 0 219.97,101.69 L 219.76,93.84 A 1.89,1.70 7.2 0 0 218.33,92.19 Z"/>
<path fill="#ffffff" d="M 356.32,83.38 Q 358.76,81.55 358.76,84.75 A 0.79,0.76 78.7 0 1 358.30,85.47 Q 356.23,86.38 355.97,84.18 A 0.91,0.89 -22.3 0 1 356.32,83.38 Z"/>
<path fill="#ffffff" d="M 333.14,84.40 Q 330.99,83.22 333.75,83.35 Q 337.49,83.52 341.24,83.67 Q 344.62,83.80 346.72,85.90 Q 348.81,87.99 348.06,90.59 Q 347.30,93.20 344.14,94.67 A 0.83,0.83 57.8 0 0 343.85,95.95 Q 346.27,98.87 348.44,101.81 Q 349.51,103.27 352.97,104.63 Q 353.52,104.85 352.94,104.84 L 347.32,104.73 A 1.10,0.98 70.3 0 1 346.51,104.29 L 339.32,94.40 Q 338.69,93.53 339.77,93.51 Q 343.23,93.46 344.21,91.23 Q 345.55,88.19 342.69,86.06 Q 340.40,84.36 338.05,84.92 A 0.72,0.70 85.6 0 0 337.52,85.56 Q 337.30,88.58 337.64,91.57 Q 337.85,93.48 337.63,96.42 Q 337.39,99.48 338.12,103.60 A 1.41,1.38 -83.3 0 0 338.91,104.63 Q 339.88,105.08 340.21,105.36 Q 340.80,105.88 339.76,105.62 Q 336.52,104.81 332.96,105.56 Q 332.27,105.71 332.70,105.15 Q 334.12,103.28 334.45,101.29 Q 334.50,100.98 334.53,97.20 Q 334.57,91.79 334.23,86.11 A 2.09,2.08 -77.6 0 0 333.14,84.40 Z"/>
<path fill="#ffffff" d="M 259.30,103.84 Q 263.77,104.76 266.96,100.41 A 0.64,0.46 -53.1 0 1 267.72,100.17 Q 268.11,100.46 267.69,101.19 Q 265.76,104.50 262.28,105.38 Q 259.35,106.12 255.91,104.93 Q 247.95,102.19 249.06,92.31 Q 249.39,89.38 252.48,86.48 Q 257.51,81.76 263.96,84.51 Q 265.51,85.17 266.76,83.99 Q 268.00,82.82 267.93,84.58 L 267.74,89.60 A 0.69,0.36 89.1 0 1 267.43,90.22 Q 267.15,90.28 267.00,89.75 Q 266.33,87.39 264.39,85.92 Q 262.59,84.57 260.21,84.54 Q 256.24,84.49 254.19,87.94 Q 250.65,93.88 253.61,99.37 Q 255.62,103.09 259.30,103.84 Z"/>
<path fill="#ffffff" d="M 303.70,86.93 Q 305.08,85.79 304.43,87.46 Q 303.12,90.84 306.20,91.05 A 1.09,0.62 -4.7 0 1 307.02,91.43 Q 307.49,92.25 304.76,92.58 A 0.58,0.57 -3.4 0 0 304.25,93.15 L 304.25,101.63 A 1.12,1.12 0.8 0 0 305.34,102.75 Q 307.55,102.80 306.71,104.27 A 1.23,1.13 5.6 0 1 305.96,104.83 Q 304.02,105.32 302.25,104.43 A 0.95,0.88 -80.5 0 1 301.76,103.69 Q 301.41,100.06 301.33,96.41 Q 301.32,96.29 301.49,94.74 Q 301.67,93.09 300.16,92.04 A 0.54,0.53 -56.8 0 1 300.01,91.31 Q 301.69,88.59 303.70,86.93 Z"/>
<path fill="#ffffff" d="M 236.40,101.49 Q 236.78,100.73 237.36,100.11 Q 238.02,99.39 238.33,100.09 Q 238.46,100.38 238.36,100.80 Q 237.32,105.20 233.19,105.44 Q 228.12,105.72 226.75,100.29 Q 224.99,93.33 230.42,90.98 Q 232.99,89.86 235.14,90.66 Q 237.71,91.61 238.50,94.77 A 1.19,1.15 83.0 0 1 237.38,96.25 L 231.39,96.19 Q 227.55,96.15 229.14,99.46 Q 231.33,104.04 235.73,102.15 A 1.53,1.18 -82.1 0 0 236.40,101.49 ZM 233.10,91.69 Q 229.52,91.06 229.32,94.19 A 0.79,0.78 -75.2 0 0 229.75,94.94 Q 230.54,95.35 231.43,95.36 Q 233.15,95.39 233.57,95.42 Q 236.14,95.59 234.12,92.38 A 1.54,1.53 78.9 0 0 233.10,91.69 Z"/>
<path fill="#ffffff" d="M 278.1479,105.4483 A 7.54,7.06 88.8 0 1 270.9315,98.0579 A 7.54,7.06 88.8 0 1 277.8321,90.3717 A 7.54,7.06 88.8 0 1 285.0485,97.7621 A 7.54,7.06 88.8 0 1 278.1479,105.4483 ZM 279.0191,103.8994 A 6.28,4.05 81.4 0 0 282.0845,97.0844 A 6.28,4.05 81.4 0 0 277.1409,91.4806 A 6.28,4.05 81.4 0 0 274.0755,98.2956 A 6.28,4.05 81.4 0 0 279.0191,103.8994 Z"/>
<path fill="#ffffff" d="M 288.56,92.12 Q 291.64,89.67 296.39,91.21 A 0.88,0.88 2.3 0 1 296.99,91.86 Q 297.88,95.84 295.56,92.94 Q 294.32,91.38 291.73,91.61 Q 290.52,91.72 290.11,92.49 Q 289.71,93.22 290.14,94.06 Q 290.42,94.61 291.22,95.06 Q 292.81,95.95 294.38,96.88 Q 296.35,98.04 297.05,99.25 Q 298.69,102.06 295.56,104.31 Q 293.52,105.78 290.97,105.16 Q 288.81,104.63 288.52,104.43 Q 287.41,103.71 288.00,101.30 Q 288.41,99.61 289.36,101.06 Q 290.37,102.61 291.22,103.53 Q 292.61,105.04 294.54,103.08 A 1.77,1.76 -43.1 0 0 294.62,100.69 Q 293.57,99.48 291.61,98.79 Q 287.35,97.28 288.09,92.93 A 1.38,1.31 76.7 0 1 288.56,92.12 Z"/>
<path fill="#ffffff" d="M 355.89,101.93 Q 356.05,98.34 356.05,94.75 Q 356.06,92.90 354.54,92.28 Q 353.23,91.74 354.54,91.20 Q 356.62,90.35 358.21,90.68 A 0.70,0.57 -86.7 0 1 358.67,91.32 L 359.19,103.75 Q 359.20,103.97 359.58,104.62 L 359.80,105.01 Q 360.04,105.43 359.49,105.40 L 355.56,105.20 A 0.34,0.33 -77.6 0 1 355.27,104.73 Q 355.83,103.41 355.89,101.93 Z"/>
<path fill="#ffffff" d="M 366.50,93.59 Q 364.58,97.17 366.81,100.53 Q 367.99,102.31 369.80,102.58 Q 372.14,102.94 373.55,100.75 A 0.58,0.34 -52.1 0 1 374.26,100.47 Q 374.45,100.69 374.28,101.21 Q 372.67,106.12 368.69,105.40 Q 365.81,104.87 364.16,102.39 Q 362.44,99.81 363.25,96.50 Q 365.26,88.25 373.35,91.50 A 1.37,1.36 -3.7 0 1 374.06,92.12 Q 376.15,95.86 372.27,94.37 A 1.25,1.04 84.8 0 1 371.63,93.73 Q 370.63,91.46 368.72,91.79 Q 367.34,92.03 366.50,93.59 Z"/>
<path fill="#ffffff" d="M 320.27,101.91 L 321.81,103.26 A 0.54,0.41 40.7 0 1 321.95,103.90 Q 319.87,106.44 316.94,104.31 Q 316.16,103.75 315.11,104.41 Q 314.15,105.02 313.59,105.06 Q 312.14,105.17 310.90,104.48 Q 309.66,103.79 309.39,102.42 Q 308.98,100.26 310.81,98.56 Q 311.81,97.64 315.61,95.92 Q 316.90,95.33 317.35,94.46 Q 318.32,92.55 315.75,92.00 Q 313.33,91.49 311.82,93.94 Q 311.38,94.64 310.97,94.87 Q 309.74,95.57 309.75,93.62 A 1.88,1.87 80.4 0 1 310.99,91.87 Q 315.35,90.29 318.71,91.17 A 0.98,0.94 87.2 0 1 319.36,91.79 Q 320.88,96.28 320.09,101.01 A 1.10,0.61 -72.4 0 0 320.27,101.91 ZM 314.25,97.92 Q 312.86,98.70 312.31,99.56 Q 311.20,101.31 312.40,102.42 Q 312.90,102.89 314.29,103.05 Q 315.26,103.16 316.30,103.52 A 0.45,0.41 12.0 0 0 316.90,103.17 L 317.23,97.32 A 0.76,0.73 12.6 0 0 316.75,96.59 Q 315.66,96.17 314.93,97.25 Q 314.63,97.70 314.25,97.92 Z"/>
<path fill="#ffffff" d="M 378.44,92.94 Q 379.50,90.68 382.74,90.53 Q 389.51,90.20 388.50,97.00 Q 388.38,97.78 388.54,101.69 A 1.18,1.02 -74.6 0 0 388.94,102.53 L 390.10,103.46 A 0.53,0.48 38.9 0 1 390.21,104.16 Q 389.06,105.59 387.50,105.09 Q 385.34,104.40 385.25,104.40 Q 383.72,104.30 382.21,104.82 Q 381.70,105.00 381.26,104.92 Q 375.52,103.92 379.06,98.81 Q 379.76,97.81 382.54,96.70 Q 384.48,95.93 385.12,95.29 Q 386.94,93.47 383.73,91.74 A 1.70,1.58 -60.1 0 0 381.57,92.41 L 379.98,95.03 A 0.60,0.60 -61.7 0 1 379.22,95.26 Q 377.67,94.57 378.44,92.94 ZM 385.06,96.48 L 381.20,99.01 A 1.33,1.09 83.1 0 0 380.70,99.80 Q 379.90,103.82 384.65,102.74 A 1.08,0.95 -8.2 0 0 385.49,101.75 L 385.26,96.58 Q 385.25,96.35 385.06,96.48 Z"/>
<path fill="#0e0637" d="M 233.10,91.69 A 1.54,1.53 78.9 0 1 234.12,92.38 Q 236.14,95.59 233.57,95.42 Q 233.15,95.39 231.43,95.36 Q 230.54,95.35 229.75,94.94 A 0.79,0.78 -75.2 0 1 229.32,94.19 Q 229.52,91.06 233.10,91.69 Z"/>
<ellipse fill="#0e0637" cx="0.00" cy="0.00" transform="translate(278.08,97.69) rotate(81.4)" rx="6.28" ry="4.05"/>
<path fill="#0e0637" d="M 218.33,92.19 A 1.89,1.70 7.2 0 1 219.76,93.84 L 219.97,101.69 A 1.19,1.05 -23.9 0 1 219.58,102.54 Q 218.51,103.48 217.06,103.65 A 1.34,1.21 57.2 0 1 216.16,103.41 Q 212.30,100.70 213.01,96.18 Q 213.36,94.02 214.44,92.97 Q 215.87,91.57 218.33,92.19 Z"/>
<path fill="#0e0637" d="M 314.93,97.25 Q 315.66,96.17 316.75,96.59 A 0.76,0.73 12.6 0 1 317.23,97.32 L 316.90,103.17 A 0.45,0.41 12.0 0 1 316.30,103.52 Q 315.26,103.16 314.29,103.05 Q 312.90,102.89 312.40,102.42 Q 311.20,101.31 312.31,99.56 Q 312.86,98.70 314.25,97.92 Q 314.63,97.70 314.93,97.25 Z"/>
<path fill="#0e0637" d="M 385.06,96.48 Q 385.25,96.35 385.26,96.58 L 385.49,101.75 A 1.08,0.95 -8.2 0 1 384.65,102.74 Q 379.90,103.82 380.70,99.80 A 1.33,1.09 83.1 0 1 381.20,99.01 L 385.06,96.48 Z"/>
</svg>
